<svg width="50" height="50" viewBox="0 0 50 50" fill="none" xmlns="http://www.w3.org/2000/svg">
<path d="M25 47.9167L5.20833 36.4583V13.5417L25 2.08334L44.7917 13.5417V36.4583L25 47.9167ZM25 6.90001L9.375 15.9438V34.0563L25 43.1021L40.625 34.0563V15.9438L25 6.89793V6.90001ZM25 33.3333C23.072 33.3338 21.2035 32.6656 19.7129 31.4429C18.2223 30.2201 17.2018 28.5182 16.8253 26.6274C16.4488 24.7365 16.7396 22.7736 17.6481 21.0731C18.5567 19.3726 20.0267 18.0397 21.8078 17.3016C23.5889 16.5635 25.5708 16.4657 27.4159 17.0251C29.2609 17.5844 30.855 18.7662 31.9264 20.3691C32.9978 21.972 33.4802 23.8968 33.2916 25.8155C33.1029 27.7342 32.2547 29.5282 30.8917 30.8917C29.3258 32.4494 27.2087 33.3267 25 33.3333ZM25 20.8333C24.4528 20.8332 23.911 20.9408 23.4054 21.1501C22.8998 21.3594 22.4404 21.6662 22.0534 22.053C21.6664 22.4398 21.3594 22.8991 21.1499 23.4045C20.9403 23.91 20.8324 24.4518 20.8323 24.999C20.8322 25.5461 20.9398 26.088 21.1491 26.5936C21.3583 27.0991 21.6651 27.5585 22.0519 27.9456C22.4388 28.3326 22.898 28.6396 23.4035 28.8491C23.909 29.0586 24.4507 29.1665 24.9979 29.1667C26.103 29.167 27.1629 28.7282 27.9445 27.947C28.7261 27.1658 29.1653 26.1061 29.1656 25.0011C29.1659 23.896 28.7272 22.8361 27.946 22.0545C27.1648 21.2729 26.1051 20.8336 25 20.8333Z" fill="white"/>
</svg>
