<svg width="65" height="65" viewBox="0 0 65 65" fill="none" xmlns="http://www.w3.org/2000/svg">
<g clip-path="url(#clip0_14_338)">
<path d="M64.0369 14.8112C65.0588 16.4193 65.2887 18.2389 64.7267 20.2702L54.1888 58.61C53.7034 60.4156 52.7263 61.932 51.2574 63.1592C49.7884 64.3864 48.2237 65 46.5632 65H11.1944C9.22729 65 7.33048 64.2453 5.50392 62.736C3.67736 61.2267 2.40643 59.3717 1.69113 57.1712C1.07802 55.281 1.05247 53.4896 1.61449 51.7969C1.61449 51.684 1.65281 51.3032 1.72945 50.6543C1.80609 50.0054 1.85718 49.4835 1.88273 49.0885C1.90827 48.8628 1.86995 48.5596 1.76777 48.1787C1.66558 47.7979 1.62726 47.5228 1.65281 47.3535C1.7039 47.0432 1.80609 46.747 1.95937 46.4648C2.11264 46.1827 2.3234 45.8512 2.59164 45.4704C2.85987 45.0895 3.07063 44.758 3.22391 44.4759C3.81147 43.4039 4.38627 42.1132 4.94828 40.6038C5.5103 39.0945 5.8935 37.8038 6.09787 36.7318C6.17451 36.4496 6.18089 36.0265 6.11703 35.4622C6.05316 34.898 6.04678 34.503 6.09787 34.2773C6.17451 33.967 6.39165 33.572 6.7493 33.0924C7.10695 32.6128 7.32409 32.2884 7.40073 32.1191C7.9372 31.1035 8.47368 29.8058 9.01015 28.2259C9.54662 26.646 9.86595 25.3765 9.96814 24.4173C9.99368 24.1634 9.96175 23.712 9.87234 23.0632C9.78292 22.4143 9.78931 22.0193 9.8915 21.8783C9.99368 21.5115 10.2747 21.0813 10.7345 20.5876C11.1944 20.0939 11.4754 19.7765 11.5776 19.6354C12.0629 18.9019 12.6058 17.71 13.2061 16.0596C13.8065 14.4092 14.1577 13.048 14.2599 11.9759C14.2855 11.7502 14.2471 11.3905 14.145 10.8968C14.0428 10.4031 14.0172 10.0293 14.0683 9.77539C14.1194 9.5497 14.2344 9.29579 14.4132 9.01367C14.592 8.73155 14.8219 8.40712 15.1029 8.04036C15.384 7.67361 15.6011 7.37739 15.7544 7.15169C15.9587 6.81315 16.1695 6.38292 16.3866 5.861C16.6038 5.33908 16.7954 4.84538 16.9614 4.37988C17.1275 3.91439 17.3319 3.40658 17.5745 2.85645C17.8172 2.30631 18.0663 1.85493 18.3218 1.50228C18.5772 1.14963 18.9157 0.818142 19.3372 0.507812C19.7588 0.197483 20.2186 0.0352648 20.7167 0.0211589C21.2149 0.00705295 21.8216 0.0846354 22.5369 0.253906L22.4986 0.380859C23.4694 0.126953 24.1208 0 24.4529 0H53.614C55.5044 0 56.9606 0.789931 57.9824 2.36979C59.0043 3.94965 59.2342 5.78342 58.6722 7.87109L48.1726 46.2109C47.253 49.5681 46.3397 51.7334 45.4328 52.7067C44.5259 53.68 42.8846 54.1667 40.5088 54.1667H7.20913C6.51938 54.1667 6.034 54.3783 5.75299 54.8014C5.47198 55.2528 5.45921 55.8594 5.71467 56.6211C6.32779 58.5959 8.16712 59.5833 11.2327 59.5833H46.6015C47.3424 59.5833 48.0577 59.3647 48.7474 58.9274C49.4372 58.4901 49.8842 57.9047 50.0886 57.1712L61.5845 15.4036C61.7633 14.783 61.8271 13.9789 61.7761 12.9915C62.7468 13.4147 63.5004 14.0213 64.0369 14.8112ZM23.265 14.8958C23.1628 15.2626 23.1884 15.58 23.3416 15.848C23.4949 16.116 23.7504 16.25 24.108 16.25H47.4063C47.7384 16.25 48.0641 16.116 48.3834 15.848C48.7027 15.58 48.9135 15.2626 49.0157 14.8958L49.8204 12.1875C49.9226 11.8207 49.897 11.5034 49.7437 11.2354C49.5905 10.9673 49.335 10.8333 48.9774 10.8333H25.6791C25.347 10.8333 25.0213 10.9673 24.702 11.2354C24.3826 11.5034 24.1719 11.8207 24.0697 12.1875L23.265 14.8958ZM20.0845 25.7292C19.9823 26.0959 20.0078 26.4133 20.1611 26.6813C20.3144 26.9493 20.5699 27.0833 20.9275 27.0833H44.2257C44.5578 27.0833 44.8836 26.9493 45.2029 26.6813C45.5222 26.4133 45.733 26.0959 45.8352 25.7292L46.6399 23.0208C46.7421 22.6541 46.7165 22.3367 46.5632 22.0687C46.41 21.8007 46.1545 21.6667 45.7968 21.6667H22.4986C22.1665 21.6667 21.8408 21.8007 21.5215 22.0687C21.2021 22.3367 20.9914 22.6541 20.8892 23.0208L20.0845 25.7292Z" fill="white"/>
</g>
<defs>
<clipPath id="clip0_14_338">
<rect width="65" height="65" fill="white"/>
</clipPath>
</defs>
</svg>
