<svg width="36" height="36" viewBox="0 0 36 36" fill="none" xmlns="http://www.w3.org/2000/svg">
<path d="M18 18C17.6685 18 17.3505 18.1317 17.1161 18.3661C16.8817 18.6005 16.75 18.9185 16.75 19.25V26.75C16.75 27.0815 16.8817 27.3995 17.1161 27.6339C17.3505 27.8683 17.6685 28 18 28C18.3315 28 18.6495 27.8683 18.8839 27.6339C19.1183 27.3995 19.25 27.0815 19.25 26.75V19.25C19.25 18.9185 19.1183 18.6005 18.8839 18.3661C18.6495 18.1317 18.3315 18 18 18ZM8 14.25C8 13.9185 8.1317 13.6005 8.36612 13.3661C8.60054 13.1317 8.91848 13 9.25 13C9.58152 13 9.89946 13.1317 10.1339 13.3661C10.3683 13.6005 10.5 13.9185 10.5 14.25V26.75C10.5 27.0815 10.3683 27.3995 10.1339 27.6339C9.89946 27.8683 9.58152 28 9.25 28C8.91848 28 8.60054 27.8683 8.36612 27.6339C8.1317 27.3995 8 27.0815 8 26.75V14.25ZM26.75 8C26.4185 8 26.1005 8.1317 25.8661 8.36612C25.6317 8.60054 25.5 8.91848 25.5 9.25V26.75C25.5 27.0815 25.6317 27.3995 25.8661 27.6339C26.1005 27.8683 26.4185 28 26.75 28C27.0815 28 27.3995 27.8683 27.6339 27.6339C27.8683 27.3995 28 27.0815 28 26.75V9.25C28 8.91848 27.8683 8.60054 27.6339 8.36612C27.3995 8.1317 27.0815 8 26.75 8ZM0.5 5.5C0.5 4.17392 1.02678 2.90215 1.96447 1.96447C2.90215 1.02678 4.17392 0.5 5.5 0.5H30.5C31.8261 0.5 33.0979 1.02678 34.0355 1.96447C34.9732 2.90215 35.5 4.17392 35.5 5.5V30.5C35.5 31.8261 34.9732 33.0979 34.0355 34.0355C33.0979 34.9732 31.8261 35.5 30.5 35.5H5.5C4.17392 35.5 2.90215 34.9732 1.96447 34.0355C1.02678 33.0979 0.5 31.8261 0.5 30.5V5.5ZM3 5.5V30.5C3 31.163 3.26339 31.7989 3.73223 32.2678C4.20107 32.7366 4.83696 33 5.5 33H30.5C31.163 33 31.7989 32.7366 32.2678 32.2678C32.7366 31.7989 33 31.163 33 30.5V5.5C33 4.83696 32.7366 4.20107 32.2678 3.73223C31.7989 3.26339 31.163 3 30.5 3H5.5C4.83696 3 4.20107 3.26339 3.73223 3.73223C3.26339 4.20107 3 4.83696 3 5.5Z" fill="white"/>
</svg>
