<svg width="42" height="40" viewBox="0 0 42 40" fill="none" xmlns="http://www.w3.org/2000/svg">
<path d="M14.75 29.4167H27.25M31.4167 37.75H10.5833C8.3732 37.75 6.25358 36.872 4.69078 35.3092C3.12797 33.7464 2.25 31.6268 2.25 29.4167V16.3083C2.24997 14.8754 2.61941 13.4668 3.32264 12.2183C4.02587 10.9699 5.03914 9.92384 6.26458 9.18125L16.6812 2.86875C17.9836 2.07957 19.4772 1.66232 21 1.66232C22.5228 1.66232 24.0164 2.07957 25.3187 2.86875L35.7354 9.18125C36.9606 9.92366 37.9736 10.9694 38.6768 12.2174C39.3801 13.4655 39.7497 14.8737 39.75 16.3062V29.4167C39.75 31.6268 38.872 33.7464 37.3092 35.3092C35.7464 36.872 33.6268 37.75 31.4167 37.75Z" stroke="#04B2D9" stroke-width="3.3125" stroke-linecap="round" stroke-linejoin="round"/>
</svg>
