<svg width="50" height="50" viewBox="0 0 50 50" fill="none" xmlns="http://www.w3.org/2000/svg">
<path d="M18.75 35.4167H31.25M35.4167 43.75H14.5833C12.3732 43.75 10.2536 42.872 8.69078 41.3092C7.12797 39.7464 6.25 37.6268 6.25 35.4167V22.3083C6.24997 20.8754 6.61941 19.4668 7.32264 18.2183C8.02587 16.9699 9.03914 15.9238 10.2646 15.1812L20.6812 8.86875C21.9836 8.07957 23.4772 7.66232 25 7.66232C26.5228 7.66232 28.0164 8.07957 29.3187 8.86875L39.7354 15.1812C40.9606 15.9237 41.9736 16.9694 42.6768 18.2174C43.3801 19.4655 43.7497 20.8737 43.75 22.3062V35.4167C43.75 37.6268 42.872 39.7464 41.3092 41.3092C39.7464 42.872 37.6268 43.75 35.4167 43.75Z" stroke="white" stroke-width="3.3125" stroke-linecap="round" stroke-linejoin="round"/>
</svg>
