<svg width="80" height="80" viewBox="0 0 80 80" fill="none" xmlns="http://www.w3.org/2000/svg">
<g clip-path="url(#clip0_3_24)">
<path d="M80 31.4C80.0017 30.3139 79.7157 29.2468 79.1712 28.3071C78.6267 27.3674 77.8431 26.5886 76.9 26.05L43.2 6.05C42.2288 5.48334 41.1245 5.18475 40 5.18475C38.8755 5.18475 37.7712 5.48334 36.8 6.05L3.05 26.05C2.11736 26.6034 1.34476 27.3899 0.808138 28.3323C0.271516 29.2747 -0.0106621 30.3405 -0.0106621 31.425C-0.0106621 32.5095 0.271516 33.5753 0.808138 34.5177C1.34476 35.4601 2.11736 36.2466 3.05 36.8L12.65 42.4V56.45C12.6558 57.5481 12.944 58.6262 13.4869 59.5806C14.0298 60.5351 14.8091 61.3338 15.75 61.9L37 74.15C37.9488 74.6753 39.0155 74.9509 40.1 74.9509C41.1845 74.9509 42.2512 74.6753 43.2 74.15L64.45 61.9C65.3909 61.3338 66.1702 60.5351 66.7131 59.5806C67.256 58.6262 67.5442 57.5481 67.55 56.45V42.25L73.75 38.6V52.2H80V31.4ZM61.35 56.4L40 68.7L18.9 56.45V46.1L36.8 56.75C37.7746 57.3069 38.8776 57.5998 40 57.5998C41.1224 57.5998 42.2254 57.3069 43.2 56.75L61.3 45.95L61.35 56.4ZM40 51.35L6.25 31.35L40 11.3L73.75 31.3L40 51.35Z" fill="white"/>
</g>
<defs>
<clipPath id="clip0_3_24">
<rect width="80" height="80" fill="white"/>
</clipPath>
</defs>
</svg>
