<svg width="50" height="50" viewBox="0 0 50 50" fill="none" xmlns="http://www.w3.org/2000/svg">
<path d="M25 25C24.6685 25 24.3505 25.1317 24.1161 25.3661C23.8817 25.6005 23.75 25.9185 23.75 26.25V33.75C23.75 34.0815 23.8817 34.3995 24.1161 34.6339C24.3505 34.8683 24.6685 35 25 35C25.3315 35 25.6495 34.8683 25.8839 34.6339C26.1183 34.3995 26.25 34.0815 26.25 33.75V26.25C26.25 25.9185 26.1183 25.6005 25.8839 25.3661C25.6495 25.1317 25.3315 25 25 25ZM15 21.25C15 20.9185 15.1317 20.6005 15.3661 20.3661C15.6005 20.1317 15.9185 20 16.25 20C16.5815 20 16.8995 20.1317 17.1339 20.3661C17.3683 20.6005 17.5 20.9185 17.5 21.25V33.75C17.5 34.0815 17.3683 34.3995 17.1339 34.6339C16.8995 34.8683 16.5815 35 16.25 35C15.9185 35 15.6005 34.8683 15.3661 34.6339C15.1317 34.3995 15 34.0815 15 33.75V21.25ZM33.75 15C33.4185 15 33.1005 15.1317 32.8661 15.3661C32.6317 15.6005 32.5 15.9185 32.5 16.25V33.75C32.5 34.0815 32.6317 34.3995 32.8661 34.6339C33.1005 34.8683 33.4185 35 33.75 35C34.0815 35 34.3995 34.8683 34.6339 34.6339C34.8683 34.3995 35 34.0815 35 33.75V16.25C35 15.9185 34.8683 15.6005 34.6339 15.3661C34.3995 15.1317 34.0815 15 33.75 15ZM7.5 12.5C7.5 11.1739 8.02678 9.90215 8.96447 8.96447C9.90215 8.02678 11.1739 7.5 12.5 7.5H37.5C38.8261 7.5 40.0979 8.02678 41.0355 8.96447C41.9732 9.90215 42.5 11.1739 42.5 12.5V37.5C42.5 38.8261 41.9732 40.0979 41.0355 41.0355C40.0979 41.9732 38.8261 42.5 37.5 42.5H12.5C11.1739 42.5 9.90215 41.9732 8.96447 41.0355C8.02678 40.0979 7.5 38.8261 7.5 37.5V12.5ZM10 12.5V37.5C10 38.163 10.2634 38.7989 10.7322 39.2678C11.2011 39.7366 11.837 40 12.5 40H37.5C38.163 40 38.7989 39.7366 39.2678 39.2678C39.7366 38.7989 40 38.163 40 37.5V12.5C40 11.837 39.7366 11.2011 39.2678 10.7322C38.7989 10.2634 38.163 10 37.5 10H12.5C11.837 10 11.2011 10.2634 10.7322 10.7322C10.2634 11.2011 10 11.837 10 12.5Z" fill="white"/>
</svg>
