<svg width="44" height="44" viewBox="0 0 44 44" fill="none" xmlns="http://www.w3.org/2000/svg">
<path d="M11.5835 34.5V32.4167C11.5835 29.654 12.681 27.0045 14.6345 25.051C16.588 23.0975 19.2375 22 22.0002 22C24.7628 22 27.4124 23.0975 29.3659 25.051C31.3194 27.0045 32.4168 29.654 32.4168 32.4167V34.5" stroke="white" stroke-width="1.5" stroke-linecap="round"/>
<path d="M22 22C23.6576 22 25.2473 21.3415 26.4194 20.1694C27.5915 18.9973 28.25 17.4076 28.25 15.75C28.25 14.0924 27.5915 12.5027 26.4194 11.3306C25.2473 10.1585 23.6576 9.5 22 9.5C20.3424 9.5 18.7527 10.1585 17.5806 11.3306C16.4085 12.5027 15.75 14.0924 15.75 15.75C15.75 17.4076 16.4085 18.9973 17.5806 20.1694C18.7527 21.3415 20.3424 22 22 22Z" stroke="white" stroke-width="1.5" stroke-linecap="round" stroke-linejoin="round"/>
<path d="M22.0001 42.8334C33.506 42.8334 42.8334 33.506 42.8334 22.0001C42.8334 10.4941 33.506 1.16675 22.0001 1.16675C10.4941 1.16675 1.16675 10.4941 1.16675 22.0001C1.16675 33.506 10.4941 42.8334 22.0001 42.8334Z" stroke="white" stroke-width="1.5"/>
</svg>
